<?xml version="1.0" encoding="UTF-8"?>
<svg width="53px" height="59px" viewBox="0 0 53 59" version="1.1" xmlns="http://www.w3.org/2000/svg" xmlns:xlink="http://www.w3.org/1999/xlink">
    <!-- Generator: Sketch 47.1 (45422) - http://www.bohemiancoding.com/sketch -->
    <title>Group</title>
    <desc>Created with Sketch.</desc>
    <defs></defs>
    <g id="Page-1" stroke="none" stroke-width="1" fill="none" fill-rule="evenodd">
        <g id="Group" transform="translate(3.000000, 0.000000)">
            <path d="M10.9561404,21.9567901 L1.04385965,15.0432099" id="Line-2" stroke="#FFFFFF" stroke-width="5" stroke-linecap="round"></path>
            <path d="M18.9621212,16.9583333 L14.0378788,8.04166667" id="Line-2" stroke="#FFFFFF" stroke-width="5" stroke-linecap="round"></path>
            <path d="M11.9545455,28.5 L3.04545455,28.5" id="Line-2" stroke="#FFFFFF" stroke-width="5" stroke-linecap="round"></path>
            <path d="M17.9555556,41.040404 L14.0444444,48.959596" id="Line-2" stroke="#FFFFFF" stroke-width="5" stroke-linecap="round"></path>
            <path d="M10.956,37.0394737 L0.044,42.9605263" id="Line-2" stroke="#FFFFFF" stroke-width="5" stroke-linecap="round"></path>
            <path d="M25,14.0000569 C24.9856675,14.000019 24.9713306,14 24.9569892,14 C16.1441874,14 9,21.163444 9,30 C9,38.836556 16.1441874,46 24.9569892,46 C24.9713306,46 24.9856675,45.999981 25,45.9999431 L25,14.0000528 Z" id="Combined-Shape" fill="#FFFFFF"></path>
            <g id="snowflake" transform="translate(23.000000, 0.000000)" fill-rule="nonzero" fill="#FFFFFF">
                <path d="M25.9946138,41.7305064 L19.3689497,38.0534009 L24.9625879,34.8538502 C25.8618534,34.4377361 26.1401683,33.2779358 25.6287559,32.4252553 C25.1081424,31.5520385 23.9844549,31.3678845 23.1314583,31.8453552 L15.6734786,36.0409201 L3.82064759,29.4166762 L15.6733909,22.8606904 L23.1313707,27.0494379 C23.3642929,27.2131398 23.6639897,27.3086676 23.9972489,27.3086676 C24.6293286,27.3086676 25.1955101,27.0221683 25.6286683,26.4763552 C26.1280753,25.6099558 25.8617658,24.4638745 24.9625003,24.0477603 L19.3688621,20.8482097 L25.9945262,17.1711883 C26.858126,16.6936334 27.1551062,15.6225435 26.6606942,14.7425093 C26.1884528,13.8965621 25.019986,13.6032454 24.1300093,14.1012525 L17.470958,17.8124451 L17.3714972,11.4133438 C17.355899,10.4241469 16.5723935,9.62592154 15.5403676,9.62592154 C14.508517,9.62592154 13.7015266,10.4855036 13.7093257,11.4133438 L13.7753992,19.8590128 L1.98943038,26.4149986 L1.98943038,13.1119715 L9.41411051,9.0460214 C10.280865,8.57528388 10.658553,7.47692439 10.1464397,6.61742653 C9.62643952,5.7442097 8.55901085,5.48489586 7.64914205,5.97616976 L1.98943038,9.04610556 L1.98943038,1.78733809 C1.98943038,0.798141227 1.15693942,0 0.124913525,0 C-0.0170212492,0 -0.0170212492,19.6452045 0.124913525,58.9356134 C1.15693942,58.9356134 1.98943038,58.1647418 1.98943038,57.1755449 L1.98943038,49.8486034 L7.64914205,52.9186234 C7.90826582,53.061873 8.21514827,53.1164964 8.51502028,53.1164964 C9.24717417,53.1164964 9.78706646,52.8299971 10.1464397,52.21601 C10.652156,51.356428 10.325469,50.2784365 9.41411051,49.787331 L1.98943038,45.7896391 L1.98943038,32.486612 L13.7753992,39.0425977 L13.7093257,47.4200927 C13.7007379,48.416107 14.5084294,49.241602 15.5404553,49.241602 C16.5724812,49.241602 17.355899,48.4775478 17.3714972,47.4883509 L17.470958,41.0551626 L24.1300093,44.8004422 C24.3871176,44.9436919 24.7294028,44.9914979 25.0959617,44.9914979 C25.7949912,44.9914979 26.307718,44.711816 26.6606066,44.1591854 C27.2070712,43.3064208 26.8582136,42.2080613 25.9946138,41.7305064 Z" id="Shape"></path>
            </g>
        </g>
    </g>
</svg>